<?xml version="1.0" encoding="utf-8"?>
<!-- Svg Vector Icons : http://www.onlinewebfonts.com/icon -->
<!DOCTYPE svg PUBLIC "-//W3C//DTD SVG 1.1//EN" "http://www.w3.org/Graphics/SVG/1.1/DTD/svg11.dtd">
<svg version="1.1" xmlns="http://www.w3.org/2000/svg" xmlns:xlink="http://www.w3.org/1999/xlink" x="0px" y="0px" viewBox="0 0 256 256" enable-background="new 0 0 256 256" xml:space="preserve">
<metadata> Svg Vector Icons : http://www.onlinewebfonts.com/icon </metadata>
<g><g><g><path fill="#000000" d="M85.4,10.9c-28.9,4.4-54,22.9-66.7,49.2c-13,26.8-11.4,58.6,4,84c7.9,13,19.6,24.2,33.1,31.7c18.1,10,40,13.2,61,9c12.7-2.6,27.8-9.9,37.9-18.5l3.1-2.6l41.1,41.1c38,37.9,41.3,41.1,42.7,41.1c1.1,0,2-0.4,3-1.4c1.6-1.6,1.8-3.1,0.5-4.8c-0.4-0.7-19-19.3-41.2-41.4L163.7,158l3.3-4.1c10.7-13.2,17.4-28.9,19.3-45.5c0.8-6.3,0.4-19.5-0.7-25.2c-3.5-18.7-11.9-34.8-25.2-47.9C147,22.1,130,13.7,110.9,10.9C104.7,9.9,91.6,10,85.4,10.9z M114.8,19.8c32,7.1,56,31.6,62.5,63.6c1.6,7.7,1.6,22.1,0,29.9c-3.3,16.4-10.8,30.4-22.6,42.1c-12.2,12-26.3,19.2-43.7,22.2c-7.5,1.3-21.3,1-28.5-0.5c-16.5-3.6-30.9-11.6-42.4-23.7c-23-24.3-28.5-60.7-13.6-90.4c12-23.8,33.6-39.6,60.1-43.9C93.4,17.9,108,18.4,114.8,19.8z"/></g></g></g>
</svg>